<svg width="52" height="278" viewBox="0 0 52 278" fill="none" xmlns="http://www.w3.org/2000/svg">
<path d="M0 10C0 4.47715 4.47715 0 10 0H42C47.5228 0 52 4.47715 52 10V38C52 43.5228 47.5228 48 42 48H10C4.47715 48 0 43.5228 0 38V10Z" fill="#D0282B" fill-opacity="0.28"/>
<path d="M12 10H41V39H12V10Z" fill="#D9D9D9"/>
<path d="M23.5094 272.899L36.3177 257.318L34.5958 255.26L23.4792 268.747L18.3739 262.499L16.6521 264.594L23.5094 272.899ZM23.5094 277.052L13.2687 264.594L18.3739 258.347L23.5094 264.594L34.5656 251.107L39.7614 257.281L23.5094 277.052Z" fill="white"/>
<path d="M12 10H41V39H12V10Z" fill="#D9D9D9"/>
<path d="M23.5094 31.75L36.3177 18.9417L34.5958 17.25L23.4792 28.3364L18.3739 23.201L16.6521 24.9229L23.5094 31.75ZM23.5094 35.1635L13.2687 24.9229L18.3739 19.7875L23.5094 24.9229L34.5656 13.8364L39.7614 18.9114L23.5094 35.1635Z" fill="white"/>
</svg>
